# xmcd CD database file generated by Grip 3.2.0
# 
# Track frame offsets:
#       225
#       10797
#       20626
#       34038
#       49347
#       66681
#       76883
#       85517
#       96093
#       106608
#       124118
#       134197
#       146014
#       153930
#       161723
#       175537
# 
# Disc length: 2466 seconds
# 
# Revision: 1
# Processed by: cddbd v1.5.1PL2 Copyright (c) Steve Scherf et al.
# Submitted via: Grip 3.2.0
# 
DISCID=cf099f10
DTITLE=PAPIROSSA - PAPIROSSA
DYEAR=1997
DGENRE=Other
TTITLE0=Prolog
TTITLE1=Bekanntschaft mit Venedig
TTITLE2=Mit einer Papirossa in die Kindheit
TTITLE3=Diese M‰rchenfarben
TTITLE4=Klang
TTITLE5=Kuzweiliger Walzer
TTITLE6=Ragtime N∫ 18
TTITLE7=Bis bald
TTITLE8=Laﬂ uns aus der Hektik fliehen
TTITLE9=Unter den Segeln
TTITLE10=Einladung
TTITLE11=Ohne Dich
TTITLE12=Aus der N‰he von Grodno (Amberak)
TTITLE13=Konfetti
TTITLE14=Paris! Paris!
TTITLE15=Bosaigomischava
EXTD=YEAR: 1997
EXTT0=
EXTT1=
EXTT2=
EXTT3=
EXTT4=
EXTT5=
EXTT6=
EXTT7=
EXTT8=
EXTT9=
EXTT10=
EXTT11=
EXTT12=
EXTT13=
EXTT14=
EXTT15=
PLAYORDER=
